<svg width="1304" height="167" viewBox="0 0 1304 167" fill="none" xmlns="http://www.w3.org/2000/svg"><g clip-path="url(#clip0_909_2)"><path d="M8.838 154H7.437v1.401h1.401V154zm0-136.993v-1.401H7.437v1.401h1.401zm52.293 0h1.401v-1.401h-1.4v1.401zm0 48.426H59.73v1.402h1.401v-1.401zm85.621 0v1.402h1.401v-1.401h-1.401zm0-48.426v-1.401h-1.402v1.401h1.402zm52.108 0h1.402v-1.401h-1.402v1.401zm0 136.993v1.401h1.402V154h-1.402zm-52.108 0h-1.402v1.401h1.402V154zm0-52.109h1.401v-1.401h-1.401v1.401zm-85.62 0v-1.401H59.73v1.401h1.401zm0 52.109v1.401h1.4V154h-1.4zm-50.892 0V17.007H7.437V154h2.803zM8.838 18.409h52.293v-2.803H8.838v2.803zm50.892-1.402v48.426h2.803V17.007H59.73zm1.401 49.828h85.621v-2.803h-85.62v2.803zm87.022-1.401V17.006h-2.803v48.426h2.803zm-1.401-47.025h52.108v-2.803h-52.108v2.803zm50.707-1.402V154h2.803V17.007h-2.803zM198.86 152.6h-52.108v2.802h52.108V152.6zm-50.707 1.4v-52.109h-2.803V154h2.803zm-1.401-53.51h-85.62v2.803h85.62v-2.803zm-87.022 1.401V154h2.803v-52.109H59.73zm1.401 50.708H8.838v2.802h52.293v-2.802zm153.92-135.592v-1.401h-1.401v1.401h1.401zm52.477 0h1.401v-1.401h-1.401v1.401zm83.779 0v-1.401h-1.401v1.401h1.401zm52.293 0h1.401v-1.401H403.6v1.401zM216.452 82.373V17.007h-2.802v65.366h2.802zm-1.401-63.964h52.477v-2.803h-52.477v2.803zm51.076-1.402v61.316h2.802V17.007h-2.802zm0 61.316c0 8.552 1.875 18.146 8.352 25.614 6.51 7.506 17.448 12.613 35.031 12.613v-2.803c-17.034 0-27.087-4.928-32.914-11.646-5.86-6.757-7.667-15.575-7.667-23.778h-2.802zm43.383 38.227c17.314 0 28.2-5.111 34.729-12.611 6.497-7.462 8.469-17.052 8.469-25.616h-2.802c0 8.191-1.894 17.014-7.781 23.776-5.853 6.724-15.865 11.648-32.615 11.648v2.803zm43.198-38.227V17.007h-2.802v61.316h2.802zm-1.401-59.914H403.6v-2.803h-52.293v2.803zm50.892-1.402v65.366h2.802V17.007h-2.802zm0 65.366c0 13.068-3.136 31.154-15.709 45.954-12.535 14.755-34.653 26.481-73.114 26.481v2.803c39.058 0 62.052-11.934 75.25-27.469 13.158-15.489 16.375-34.322 16.375-47.769h-2.802zm-88.823 72.435h-7.365v2.803h7.365v-2.803zm-7.365 0c-39.579 0-61.872-11.734-74.307-26.477-12.474-14.789-15.252-32.864-15.252-45.958h-2.802c0 13.422 2.837 32.264 15.912 47.765 13.113 15.547 36.3 27.473 76.449 27.473v-2.803zm107.443-48.682v-1.401h-1.402v1.401h1.402zm57.448 0l1.398-.105-.097-1.296h-1.301v1.401zm37.195-6.076l.045-1.4h-.005l-.04 1.4zm-25.41-.737l.04-1.4h-.001l-.039 1.4zm111.214-39.956v1.402h1.402v-1.402h-1.402zm-56.896 0l-1.393.155.139 1.247h1.254v-1.402zm-35.353 6.26l.032-1.4h-.002l-.03 1.4zm24.674.553l.039-1.4-.008-.001-.031 1.401zm-12.521 89.006h-16.756v2.803h16.756v-2.803zm-16.756 0c-37.693 0-58.189-7.665-69.259-17.264-11.012-9.55-12.935-21.229-12.935-29.945h-2.803c0 9.145 2.036 21.772 13.902 32.062 11.809 10.241 33.111 17.95 71.095 17.95v-2.803zm-82.194-47.209v-1.841h-2.803v1.841h2.803zm-1.401-.439h57.448v-2.803h-57.448v2.803zm56.051-1.297c.291 3.884 1.478 9.156 6.653 13.407 5.123 4.207 13.928 7.223 28.993 7.223v-2.803c-14.765 0-22.808-2.968-27.214-6.586-4.353-3.575-5.376-7.969-5.637-11.451l-2.795.21zm35.646 20.63h1.657v-2.803h-1.657v2.803zm1.657 0c14.672 0 23.336-1.557 28.368-4.11 2.555-1.296 4.23-2.876 5.246-4.683 1.011-1.797 1.299-3.693 1.299-5.497h-2.803c0 1.51-.241 2.883-.939 4.123-.693 1.232-1.907 2.46-4.071 3.557-4.404 2.235-12.495 3.807-27.1 3.807v2.803zm34.913-14.29v-.184h-2.803v.184h2.803zm0-.184c0-1.851-.228-3.714-1.169-5.426-.954-1.734-2.548-3.151-4.977-4.29-4.756-2.231-13.081-3.562-27.433-4.022l-.09 2.802c14.372.46 22.158 1.799 26.333 3.757 2.035.955 3.111 2.013 3.711 3.104.612 1.113.822 2.427.822 4.075h2.803zm-33.584-13.738l-25.41-.736-.081 2.801 25.41.737.081-2.802zm-25.411-.737c-26.399-.733-42.862-5.729-52.699-12.962-9.747-7.167-13.146-16.65-13.146-26.882h-2.803c0 10.943 3.689 21.346 14.289 29.14 10.509 7.728 27.65 12.767 54.281 13.506l.078-2.802zm-65.845-39.844v-1.657h-2.803v1.657h2.803zm0-1.657c0-10.768 3.568-20.726 14.809-28.08 11.371-7.44 30.739-12.316 62.597-12.316v-2.803c-32.035 0-52.071 4.883-64.131 12.773-12.189 7.974-16.078 18.915-16.078 30.426h2.803zm77.406-40.396h16.388v-2.803h-16.388v2.803zm16.388 0c33.78 0 54.257 5.379 66.254 13.258 11.88 7.802 15.571 18.141 15.571 28.611h2.803c0-11.257-4.043-22.553-16.836-30.954-12.677-8.325-33.813-13.718-67.792-13.718v2.803zm81.825 41.87v1.472h2.803v-1.473H592.5zm1.401.07h-56.896v2.804h56.896v-2.803zm-55.503 1.247c-.304-2.735-1.306-6.825-6.276-10.147-4.853-3.244-13.335-5.645-28.26-5.645v2.802c14.719 0 22.533 2.386 26.702 5.173 4.052 2.708 4.8 5.89 5.048 8.127l2.786-.31zM503.862 43.41h-1.842v2.802h1.842V43.41zm-1.842 0c-13.725 0-21.545 1.186-25.964 3.185-2.255 1.02-3.719 2.294-4.589 3.811-.861 1.504-1.045 3.086-1.045 4.532h2.802c0-1.224.162-2.242.675-3.138.506-.882 1.447-1.807 3.312-2.651 3.821-1.73 11.1-2.937 24.809-2.937V43.41zm-31.598 11.528v.184h2.802v-.184h-2.802zm0 .184c0 1.556.287 3.161 1.263 4.658.972 1.491 2.534 2.73 4.821 3.737 4.509 1.985 12.211 3.225 25.116 3.502l.06-2.803c-12.873-.275-20.086-1.52-24.047-3.264-1.947-.858-3.01-1.794-3.602-2.703-.589-.902-.809-1.92-.809-3.127h-2.802zm31.199 11.897l24.673.552.063-2.802-24.673-.552-.063 2.802zm24.665.552c26.014.735 43.804 4.14 55.062 10.63 5.595 3.227 9.554 7.203 12.127 11.988 2.578 4.795 3.812 10.492 3.812 17.226h2.803c0-7.075-1.298-13.255-4.146-18.553-2.853-5.307-7.214-9.64-13.196-13.088-11.897-6.86-30.288-10.267-56.383-11.005l-.079 2.802zm71.001 39.844v2.578h2.803v-2.578h-2.803zm0 2.578c0 11.212-3.115 22.358-14.859 30.785-11.862 8.511-32.722 14.398-68.623 14.398v2.803c36.093 0 57.676-5.897 70.257-14.924 12.699-9.112 16.028-21.258 16.028-33.062h-2.803zM661.053 154h-1.402v1.401h1.402V154zm0-99.614h1.401v-1.402h-1.401v1.402zm-59.106 0h-1.402v1.401h1.402v-1.401zm0-37.379v-1.401h-1.402v1.401h1.402zm170.504 0h1.402v-1.401h-1.402v1.401zm0 37.379v1.401h1.402v-1.401h-1.402zm-59.105 0v-1.402h-1.402v1.402h1.402zm0 99.614v1.401h1.401V154h-1.401zm-50.892 0V54.386h-2.803V154h2.803zm-1.401-101.016h-59.106v2.803h59.106v-2.803zm-57.705 1.402V17.007h-2.803v37.379h2.803zm-1.401-35.977h170.504v-2.803H601.947v2.803zm169.103-1.402v37.379h2.803V17.007h-2.803zm1.401 35.977h-59.105v2.803h59.105v-2.803zm-60.507 1.402V154h2.803V54.386h-2.803zm1.402 98.213h-52.293v2.802h52.293v-2.802zm72.65-135.592v-1.401h-1.401v1.401h1.401zm52.293 0h1.402v-1.401h-1.402v1.401zm0 97.773h-1.401v1.402h1.401v-1.402zm95.011 0h1.402v-1.401H933.3v1.401zm0 39.22v1.401h1.402V154H933.3zm-147.304 0h-1.401v1.401h1.401V154zm0-135.591h52.293v-2.803h-52.293v2.803zm50.892-1.402v97.773h2.803V17.007h-2.803zm1.401 99.175H933.3v-2.803h-95.011v2.803zm93.61-1.402V154h2.803v-39.22h-2.803zm1.401 37.819H785.996v2.802H933.3v-2.802zM787.398 154V17.007h-2.803V154h2.803zM947.11 17.007v-1.401h-1.401v1.401h1.401zm151.54 0h1.4v-1.401h-1.4v1.401zm0 33.512v1.401h1.4v-1.4h-1.4zm-99.984 0v-1.401h-1.401v1.4h1.401zm0 17.124h-1.401v1.401h1.401v-1.401zm97.954 0h1.41v-1.401h-1.41v1.401zm0 33.328v1.401h1.41v-1.401h-1.41zm-97.954 0v-1.402h-1.401v1.402h1.401zm0 18.781h-1.401v1.401h1.401v-1.401zm101.454 0h1.4v-1.402h-1.4v1.402zm0 34.248v1.401h1.4V154h-1.4zm-153.01 0h-1.401v1.401h1.401V154zm0-135.591h151.54v-2.803H947.11v2.803zm150.14-1.402V50.52h2.8V17.007h-2.8zm1.4 32.11h-99.984v2.803h99.984v-2.803zM997.265 50.52v17.124h2.805V50.519h-2.805zm1.401 18.525h97.954v-2.802h-97.954v2.802zm96.554-1.401v33.328h2.81V67.643h-2.81zm1.4 31.926h-97.954v2.803h97.954V99.57zm-99.355 1.402v18.781h2.805v-18.781h-2.805zm1.401 20.182h101.454v-2.803H998.666v2.803zm100.054-1.401V154h2.8v-34.248h-2.8zm1.4 32.847H947.11v2.802h153.01V152.6zM948.511 154V17.007h-2.802V154h2.802zM1167.53 50.335v-1.402h-1.4v1.402h1.4zm0 23.568h-1.4v1.402h1.4v-1.402zm0 33.144v-1.402h-1.4v1.402h1.4zm0 46.953v1.401h1.4V154h-1.4zm-52.29 0h-1.4v1.401h1.4V154zm0-136.993v-1.401h-1.4v1.401h1.4zm154.48 67.76l-.32-1.365.01 2.731.31-1.366zm30.75 68.312h1.4v-.353l-.16-.311-1.24.664zm0 .921v1.401h1.4V154h-1.4zm-53.4 0l-1.05.923.42.478h.63V154zm-80.94-103.665v23.568h2.8V50.335h-2.8zm1.4 24.97h60.03v-2.803h-60.03v2.803zm60.03 0c5.98 0 10.31-1.326 13.17-3.737 2.89-2.443 4.06-5.823 4.06-9.449h-2.8c0 3.003-.95 5.515-3.07 7.307-2.16 1.824-5.75 3.076-11.36 3.076v2.803zm17.23-13.186v-.184h-2.8v.184h2.8zm0-.184c0-3.527-1.12-6.865-3.99-9.288-2.84-2.39-7.18-3.714-13.24-3.714v2.803c5.71 0 9.29 1.254 11.43 3.054 2.1 1.766 3 4.228 3 7.145h2.8zm-17.23-13.002h-60.03v2.803h60.03v-2.803zm-61.43 58.114V154h2.8v-46.953h-2.8zm1.4 45.552h-52.29v2.802h52.29v-2.802zM1116.64 154V17.007h-2.8V154h2.8zm-1.4-135.591h124.47v-2.803h-124.47v2.803zm124.47 0c19.87 0 33.96 3.213 43.04 9.01 8.98 5.73 13.19 14.058 13.19 24.757h2.8c0-11.58-4.63-20.836-14.48-27.12-9.74-6.219-24.47-9.45-44.55-9.45v2.803zm56.23 33.767v2.026h2.8v-2.026h-2.8zm0 2.026c0 9.476-4.1 16.15-9.46 20.782-5.39 4.665-12.07 7.256-17.08 8.418l.64 2.73c5.3-1.231 12.44-3.98 18.27-9.028 5.88-5.081 10.43-12.493 10.43-22.902h-2.8zm-26.53 31.931c8.26 1.886 15.02 5.497 19.71 10.69 4.67 5.176 7.37 12.014 7.37 20.535h2.8c0-9.155-2.91-16.679-8.09-22.413-5.16-5.717-12.49-9.563-21.17-11.544l-.62 2.732zm27.08 31.225v20.254h2.8v-20.254h-2.8zm0 20.254c0 9.711 1.31 13.463 2.75 16.132l2.47-1.329c-1.15-2.119-2.42-5.363-2.42-14.803h-2.8zm2.58 15.467V154h2.8v-.921h-2.8zm1.4-.48h-53.4v2.802h53.4v-2.802zm-52.34.478c-.92-1.048-1.31-2.404-1.31-6.258h-2.8c0 3.879.34 6.206 2 8.104l2.11-1.846zm-1.31-6.258V130.8h-2.8v16.019h2.8zm0-16.019c0-8.014-1.84-14.422-6.63-18.782-4.75-4.329-12.13-6.373-22.58-6.373v2.803c10.18 0 16.7 2.008 20.69 5.642 3.96 3.604 5.72 9.072 5.72 16.71h2.8zm-29.21-25.155h-50.08v2.803h50.08v-2.803z" fill="#616161"/></g><defs><clipPath id="clip0_909_2"><path fill="#fff" d="M0 0h1304v167H0z"/></clipPath></defs></svg>